%TF.GenerationSoftware,KiCad,Pcbnew,10.0.3*%
%TF.CreationDate,2026-06-01T14:34:15-04:00*%
%TF.ProjectId,powerprobe,706f7765-7270-4726-9f62-652e6b696361,rev?*%
%TF.SameCoordinates,Original*%
%TF.FileFunction,Paste,Top*%
%TF.FilePolarity,Positive*%
%FSLAX46Y46*%
G04 Gerber Fmt 4.6, Leading zero omitted, Abs format (unit mm)*
G04 Created by KiCad (PCBNEW 10.0.3) date 2026-06-01 14:34:15*
%MOMM*%
%LPD*%
G01*
G04 APERTURE LIST*
G04 Aperture macros list*
%AMRoundRect*
0 Rectangle with rounded corners*
0 $1 Rounding radius*
0 $2 $3 $4 $5 $6 $7 $8 $9 X,Y pos of 4 corners*
0 Add a 4 corners polygon primitive as box body*
4,1,4,$2,$3,$4,$5,$6,$7,$8,$9,$2,$3,0*
0 Add four circle primitives for the rounded corners*
1,1,$1+$1,$2,$3*
1,1,$1+$1,$4,$5*
1,1,$1+$1,$6,$7*
1,1,$1+$1,$8,$9*
0 Add four rect primitives between the rounded corners*
20,1,$1+$1,$2,$3,$4,$5,0*
20,1,$1+$1,$4,$5,$6,$7,0*
20,1,$1+$1,$6,$7,$8,$9,0*
20,1,$1+$1,$8,$9,$2,$3,0*%
G04 Aperture macros list end*
%ADD10C,0.000000*%
%ADD11RoundRect,0.250000X0.250000X0.475000X-0.250000X0.475000X-0.250000X-0.475000X0.250000X-0.475000X0*%
%ADD12RoundRect,0.150000X-0.825000X-0.150000X0.825000X-0.150000X0.825000X0.150000X-0.825000X0.150000X0*%
%ADD13RoundRect,0.250000X-0.262500X-0.450000X0.262500X-0.450000X0.262500X0.450000X-0.262500X0.450000X0*%
%ADD14R,5.080000X2.420000*%
%ADD15R,5.080000X2.290000*%
%ADD16RoundRect,0.250000X-0.250000X-0.475000X0.250000X-0.475000X0.250000X0.475000X-0.250000X0.475000X0*%
%ADD17RoundRect,0.250000X0.262500X0.450000X-0.262500X0.450000X-0.262500X-0.450000X0.262500X-0.450000X0*%
%ADD18RoundRect,0.250000X-0.450000X0.262500X-0.450000X-0.262500X0.450000X-0.262500X0.450000X0.262500X0*%
%ADD19RoundRect,0.250000X0.450000X-0.262500X0.450000X0.262500X-0.450000X0.262500X-0.450000X-0.262500X0*%
%ADD20R,1.000000X0.970000*%
%ADD21RoundRect,0.250000X0.412500X0.650000X-0.412500X0.650000X-0.412500X-0.650000X0.412500X-0.650000X0*%
%ADD22RoundRect,0.250000X0.650000X-0.412500X0.650000X0.412500X-0.650000X0.412500X-0.650000X-0.412500X0*%
%ADD23R,1.333500X0.431800*%
%ADD24R,1.397000X0.431800*%
%ADD25RoundRect,0.250000X-0.412500X-0.650000X0.412500X-0.650000X0.412500X0.650000X-0.412500X0.650000X0*%
%ADD26RoundRect,0.250000X0.475000X-0.250000X0.475000X0.250000X-0.475000X0.250000X-0.475000X-0.250000X0*%
G04 APERTURE END LIST*
D10*
%TO.C,U3*%
G36*
X163910150Y-83850360D02*
G01*
X162357550Y-83850360D01*
X162357550Y-82577160D01*
X163910150Y-82577160D01*
X163910150Y-83850360D01*
G37*
G36*
X163910150Y-85323560D02*
G01*
X162357550Y-85323560D01*
X162357550Y-84050360D01*
X163910150Y-84050360D01*
X163910150Y-85323560D01*
G37*
%TO.C,U4*%
G36*
X177576300Y-74525000D02*
G01*
X176023700Y-74525000D01*
X176023700Y-73251800D01*
X177576300Y-73251800D01*
X177576300Y-74525000D01*
G37*
G36*
X177576300Y-75998200D02*
G01*
X176023700Y-75998200D01*
X176023700Y-74725000D01*
X177576300Y-74725000D01*
X177576300Y-75998200D01*
G37*
%TO.C,U1*%
G36*
X152585150Y-91875360D02*
G01*
X151032550Y-91875360D01*
X151032550Y-90602160D01*
X152585150Y-90602160D01*
X152585150Y-91875360D01*
G37*
G36*
X152585150Y-93348560D02*
G01*
X151032550Y-93348560D01*
X151032550Y-92075360D01*
X152585150Y-92075360D01*
X152585150Y-93348560D01*
G37*
%TD*%
D11*
%TO.C,C1*%
X174775000Y-91100000D03*
X172875000Y-91100000D03*
%TD*%
D12*
%TO.C,U2*%
X175650000Y-82837500D03*
X175650000Y-84107500D03*
X175650000Y-85377500D03*
X175650000Y-86647500D03*
X180600000Y-86647500D03*
X180600000Y-85377500D03*
X180600000Y-84107500D03*
X180600000Y-82837500D03*
%TD*%
D11*
%TO.C,C2*%
X174725000Y-88900000D03*
X172825000Y-88900000D03*
%TD*%
D13*
%TO.C,R2*%
X177562500Y-88750000D03*
X179387500Y-88750000D03*
%TD*%
D14*
%TO.C,J_RF1*%
X193725000Y-81045000D03*
X193725000Y-89805000D03*
D15*
X193725000Y-85425000D03*
%TD*%
D16*
%TO.C,C4*%
X183225000Y-80600000D03*
X185125000Y-80600000D03*
%TD*%
D11*
%TO.C,C3*%
X185175000Y-82700000D03*
X183275000Y-82700000D03*
%TD*%
D17*
%TO.C,R4*%
X184587500Y-85400000D03*
X182762500Y-85400000D03*
%TD*%
D11*
%TO.C,C5*%
X188275000Y-85400000D03*
X186375000Y-85400000D03*
%TD*%
D18*
%TO.C,R_SH1*%
X170925000Y-88725000D03*
X170925000Y-90550000D03*
%TD*%
D17*
%TO.C,R3*%
X182875000Y-88750000D03*
X181050000Y-88750000D03*
%TD*%
D19*
%TO.C,R10*%
X169700000Y-84725000D03*
X169700000Y-86550000D03*
%TD*%
D20*
%TO.C,FB1*%
X182205000Y-76650000D03*
X183675000Y-76650000D03*
%TD*%
D21*
%TO.C,C14*%
X184587500Y-74125000D03*
X181462500Y-74125000D03*
%TD*%
D17*
%TO.C,R11*%
X152062500Y-82400000D03*
X150237500Y-82400000D03*
%TD*%
D22*
%TO.C,C13*%
X171950000Y-76125000D03*
X171950000Y-73000000D03*
%TD*%
D23*
%TO.C,U3*%
X160917700Y-82324760D03*
X160917700Y-82975000D03*
X160917700Y-83625240D03*
X160917700Y-84275480D03*
X160917700Y-84925720D03*
X160917700Y-85575960D03*
X165350000Y-85575960D03*
X165350000Y-84925720D03*
X165350000Y-84275480D03*
X165350000Y-83625240D03*
X165350000Y-82975000D03*
X165350000Y-82324760D03*
%TD*%
D24*
%TO.C,U4*%
X174615600Y-72999999D03*
X174615600Y-73650001D03*
X174615600Y-74299999D03*
X174615600Y-74949998D03*
X174615600Y-75599999D03*
X174615600Y-76249998D03*
X178984400Y-76250001D03*
X178984400Y-75599999D03*
X178984400Y-74950001D03*
X178984400Y-74300002D03*
X178984400Y-73650001D03*
X178984400Y-73000002D03*
%TD*%
D25*
%TO.C,C11*%
X165325000Y-79425000D03*
X168450000Y-79425000D03*
%TD*%
D26*
%TO.C,C9*%
X158070750Y-83675060D03*
X158070750Y-81775060D03*
%TD*%
D17*
%TO.C,R7*%
X153837500Y-95875000D03*
X152012500Y-95875000D03*
%TD*%
D20*
%TO.C,FB2*%
X171330000Y-81775000D03*
X172800000Y-81775000D03*
%TD*%
D13*
%TO.C,R14*%
X171075000Y-78425000D03*
X172900000Y-78425000D03*
%TD*%
D22*
%TO.C,C6*%
X158250000Y-94150000D03*
X158250000Y-91025000D03*
%TD*%
D11*
%TO.C,C7*%
X150225000Y-84450000D03*
X152125000Y-84450000D03*
%TD*%
D17*
%TO.C,R8*%
X152075000Y-86875000D03*
X150250000Y-86875000D03*
%TD*%
D23*
%TO.C,U1*%
X149592700Y-90349760D03*
X149592700Y-91000000D03*
X149592700Y-91650240D03*
X149592700Y-92300480D03*
X149592700Y-92950720D03*
X149592700Y-93600960D03*
X154025000Y-93600960D03*
X154025000Y-92950720D03*
X154025000Y-92300480D03*
X154025000Y-91650240D03*
X154025000Y-91000000D03*
X154025000Y-90349760D03*
%TD*%
D19*
%TO.C,R9*%
X158020750Y-87375060D03*
X158020750Y-85550060D03*
%TD*%
D11*
%TO.C,C8*%
X150025000Y-95875000D03*
X148125000Y-95875000D03*
%TD*%
D13*
%TO.C,R13*%
X178325000Y-80200000D03*
X180150000Y-80200000D03*
%TD*%
D16*
%TO.C,C12*%
X178300000Y-78075000D03*
X180200000Y-78075000D03*
%TD*%
D26*
%TO.C,C10*%
X167600000Y-86600000D03*
X167600000Y-84700000D03*
%TD*%
D17*
%TO.C,R12*%
X152037500Y-80325000D03*
X150212500Y-80325000D03*
%TD*%
M02*
