M48
; DRILL file KiCad 10.0.3 date 2026-06-01T14:34:09
; FORMAT={-:-/ absolute / metric / decimal}
; #@! TF.CreationDate,2026-06-01T14:34:09-04:00
; #@! TF.GenerationSoftware,Kicad,Pcbnew,10.0.3
; #@! TF.FileFunction,Plated,1,2,PTH
FMAT,2
METRIC
; #@! TA.AperFunction,Plated,PTH,ViaDrill
T1C0.381
; #@! TA.AperFunction,Plated,PTH,ComponentDrill
T2C0.460
; #@! TA.AperFunction,Plated,PTH,ViaDrill
T3C0.508
; #@! TA.AperFunction,Plated,PTH,ComponentDrill
T4C0.787
; #@! TA.AperFunction,Plated,PTH,ComponentDrill
T5C1.194
; #@! TA.AperFunction,Plated,PTH,ComponentDrill
T6C1.499
; #@! TA.AperFunction,Plated,PTH,ComponentDrill
T7C1.800
; #@! TA.AperFunction,Plated,PTH,ComponentDrill
T8C3.200
%
G90
G05
T1
X153.575Y-84.7
X154.0Y-94.625
X156.7Y-94.65
X159.471Y-84.625
X164.196Y-86.125
X167.775Y-83.375
X171.475Y-86.55
X176.075Y-91.175
X176.95Y-78.075
X177.5Y-86.85
X181.083Y-75.733
X182.575Y-78.225
X186.1Y-73.725
T2
X190.285Y-81.045
X190.285Y-89.805
T3
X154.675Y-89.075
X170.925Y-91.925
T4
X143.925Y-81.3
X143.925Y-83.3
X143.925Y-85.3
X143.925Y-89.3
T5
X162.975Y-92.775
X166.475Y-92.775
T6
X143.925Y-79.2
X143.925Y-91.4
T7
X146.9Y-72.825
X151.9Y-72.825
X159.475Y-72.825
X164.475Y-72.825
T8
X138.4Y-73.175
X138.4Y-97.175
X191.775Y-73.175
X191.775Y-97.175
M30
