%TF.GenerationSoftware,KiCad,Pcbnew,10.0.3*%
%TF.CreationDate,2026-06-01T14:34:15-04:00*%
%TF.ProjectId,powerprobe,706f7765-7270-4726-9f62-652e6b696361,rev?*%
%TF.SameCoordinates,Original*%
%TF.FileFunction,Copper,L2,Bot*%
%TF.FilePolarity,Positive*%
%FSLAX46Y46*%
G04 Gerber Fmt 4.6, Leading zero omitted, Abs format (unit mm)*
G04 Created by KiCad (PCBNEW 10.0.3) date 2026-06-01 14:34:15*
%MOMM*%
%LPD*%
G01*
G04 APERTURE LIST*
G04 Aperture macros list*
%AMRoundRect*
0 Rectangle with rounded corners*
0 $1 Rounding radius*
0 $2 $3 $4 $5 $6 $7 $8 $9 X,Y pos of 4 corners*
0 Add a 4 corners polygon primitive as box body*
4,1,4,$2,$3,$4,$5,$6,$7,$8,$9,$2,$3,0*
0 Add four circle primitives for the rounded corners*
1,1,$1+$1,$2,$3*
1,1,$1+$1,$4,$5*
1,1,$1+$1,$6,$7*
1,1,$1+$1,$8,$9*
0 Add four rect primitives between the rounded corners*
20,1,$1+$1,$2,$3,$4,$5,0*
20,1,$1+$1,$4,$5,$6,$7,0*
20,1,$1+$1,$6,$7,$8,$9,0*
20,1,$1+$1,$8,$9,$2,$3,0*%
G04 Aperture macros list end*
%TA.AperFunction,ConnectorPad*%
%ADD10C,6.400000*%
%TD*%
%TA.AperFunction,ComponentPad*%
%ADD11C,3.600000*%
%TD*%
%TA.AperFunction,ComponentPad*%
%ADD12C,0.970000*%
%TD*%
%TA.AperFunction,SMDPad,CuDef*%
%ADD13R,0.950000X0.460000*%
%TD*%
%TA.AperFunction,SMDPad,CuDef*%
%ADD14R,5.080000X2.420000*%
%TD*%
%TA.AperFunction,ComponentPad*%
%ADD15C,2.006600*%
%TD*%
%TA.AperFunction,ComponentPad*%
%ADD16C,1.295400*%
%TD*%
%TA.AperFunction,ComponentPad*%
%ADD17R,1.295400X1.295400*%
%TD*%
%TA.AperFunction,ComponentPad*%
%ADD18RoundRect,0.750000X-0.750000X-0.750000X0.750000X-0.750000X0.750000X0.750000X-0.750000X0.750000X0*%
%TD*%
%TA.AperFunction,ComponentPad*%
%ADD19C,3.000000*%
%TD*%
%TA.AperFunction,ComponentPad*%
%ADD20RoundRect,0.750000X0.750000X0.750000X-0.750000X0.750000X-0.750000X-0.750000X0.750000X-0.750000X0*%
%TD*%
%TA.AperFunction,ComponentPad*%
%ADD21C,1.701800*%
%TD*%
%TA.AperFunction,ViaPad*%
%ADD22C,1.270000*%
%TD*%
%TA.AperFunction,ViaPad*%
%ADD23C,1.016000*%
%TD*%
%TA.AperFunction,Conductor*%
%ADD24C,0.508000*%
%TD*%
%TA.AperFunction,Conductor*%
%ADD25C,0.381000*%
%TD*%
G04 APERTURE END LIST*
D10*
%TO.P,H1,1*%
%TO.N,N/C*%
X138400000Y-73175000D03*
D11*
X138400000Y-73175000D03*
%TD*%
D10*
%TO.P,H4,1*%
%TO.N,N/C*%
X138400000Y-97175000D03*
D11*
X138400000Y-97175000D03*
%TD*%
D12*
%TO.P,J_RF1,2,Ext_2*%
%TO.N,GND*%
X190285000Y-81045000D03*
X190285000Y-89805000D03*
D13*
X190735000Y-81045000D03*
X190735000Y-89805000D03*
D14*
X193725000Y-81045000D03*
X193725000Y-89805000D03*
%TD*%
D11*
%TO.P,H3,1*%
%TO.N,N/C*%
X191775000Y-97175000D03*
D10*
X191775000Y-97175000D03*
%TD*%
D15*
%TO.P,SW3,7*%
%TO.N,N/C*%
X143925000Y-79200001D03*
%TO.P,SW3,6*%
X143925000Y-91400002D03*
D16*
%TO.P,SW3,4,4_4*%
%TO.N,/R_1V2*%
X143925000Y-81300002D03*
%TO.P,SW3,3,3_3*%
%TO.N,/R_1V8*%
X143925000Y-83300000D03*
%TO.P,SW3,2,2_2*%
%TO.N,/R_VT*%
X143925000Y-85300001D03*
D17*
%TO.P,SW3,1,1_1*%
%TO.N,/R_3V3*%
X143925000Y-89300001D03*
%TD*%
D18*
%TO.P,J_BAT1,1,Pin_1_1*%
%TO.N,GND*%
X146900000Y-72825000D03*
D19*
%TO.P,J_BAT1,2,Pin_2_2*%
%TO.N,/V_BAT+*%
X151900000Y-72825000D03*
%TD*%
D11*
%TO.P,H2,1*%
%TO.N,N/C*%
X191775000Y-73175000D03*
D10*
X191775000Y-73175000D03*
%TD*%
D20*
%TO.P,J_BAT2,1,Pin_1_1*%
%TO.N,/V_BAT-*%
X164475000Y-72825000D03*
D19*
%TO.P,J_BAT2,2,Pin_2_2*%
%TO.N,GND*%
X159475000Y-72825000D03*
%TD*%
D21*
%TO.P,J_TARGET1,1,Pin_1_1*%
%TO.N,V_TARGET*%
X162974998Y-92775000D03*
%TO.P,J_TARGET1,2,Pin_2_2*%
%TO.N,VSS_TARGET*%
X166475000Y-92775000D03*
%TD*%
D22*
%TO.N,V_TARGET*%
X154675000Y-89075000D03*
D23*
%TO.N,Net-(U2-V-)*%
X182575000Y-78225000D03*
X177500000Y-86850000D03*
%TO.N,/V_BAT+*%
X164195750Y-86125060D03*
X159470750Y-84625060D03*
D22*
%TO.N,GND*%
X170925000Y-91925000D03*
D23*
X176950000Y-78075000D03*
X167775000Y-83375000D03*
X156700000Y-94650000D03*
X153575000Y-84700000D03*
X154000000Y-94625000D03*
X186100000Y-73725000D03*
X181082844Y-75733000D03*
X171475000Y-86550000D03*
X176075000Y-91175000D03*
%TD*%
%TO.N,V_TARGET*%
D24*
X159274998Y-89075000D02*
X154675000Y-89075000D01*
X162974998Y-92775000D02*
X159274998Y-89075000D01*
%TO.N,Net-(U2-V-)*%
D25*
X182575000Y-78225000D02*
X177500000Y-83300000D01*
X177500000Y-83300000D02*
X177500000Y-86850000D01*
%TO.N,/V_BAT+*%
X160970750Y-86125060D02*
X164195750Y-86125060D01*
X159470750Y-84625060D02*
X160970750Y-86125060D01*
%TO.N,GND*%
X167775000Y-83375000D02*
X170950000Y-86550000D01*
X170950000Y-86550000D02*
X171475000Y-86550000D01*
X171475000Y-86575000D02*
X176075000Y-91175000D01*
X171475000Y-86550000D02*
X171475000Y-86575000D01*
X181082844Y-75733000D02*
X178715844Y-78100000D01*
X176975000Y-78100000D02*
X176950000Y-78075000D01*
X178715844Y-78100000D02*
X176975000Y-78100000D01*
X153575000Y-84700000D02*
X154900000Y-83375000D01*
X154900000Y-83375000D02*
X167775000Y-83375000D01*
X181082844Y-75733000D02*
X183090844Y-73725000D01*
X153575000Y-84700000D02*
X153575000Y-94200000D01*
X153575000Y-94200000D02*
X154000000Y-94625000D01*
X183090844Y-73725000D02*
X186100000Y-73725000D01*
X156675000Y-94625000D02*
X156700000Y-94650000D01*
X154000000Y-94625000D02*
X156675000Y-94625000D01*
%TD*%
%TA.AperFunction,Conductor*%
%TO.N,GND*%
G36*
X195808187Y-69015619D02*
G01*
X195853988Y-69068383D01*
X195865238Y-69120027D01*
X195865109Y-69581064D01*
X195862404Y-79211036D01*
X195842702Y-79278069D01*
X195789885Y-79323809D01*
X195738405Y-79335000D01*
X193975000Y-79335000D01*
X193975000Y-82755000D01*
X195737374Y-82755000D01*
X195804413Y-82774685D01*
X195850168Y-82827489D01*
X195861374Y-82879035D01*
X195860856Y-84724393D01*
X195859954Y-87939500D01*
X195859945Y-87971035D01*
X195840242Y-88038069D01*
X195787425Y-88083809D01*
X195735945Y-88095000D01*
X193975000Y-88095000D01*
X193975000Y-91515000D01*
X195734914Y-91515000D01*
X195801953Y-91534685D01*
X195847708Y-91587489D01*
X195858914Y-91639035D01*
X195856190Y-101338046D01*
X195836487Y-101405080D01*
X195783670Y-101450820D01*
X195732040Y-101462011D01*
X134359854Y-101387979D01*
X134292839Y-101368213D01*
X134247148Y-101315354D01*
X134236004Y-101264090D01*
X134232309Y-96993209D01*
X134699500Y-96993209D01*
X134699500Y-97356790D01*
X134735137Y-97718630D01*
X134806064Y-98075212D01*
X134806067Y-98075223D01*
X134911614Y-98423165D01*
X135050754Y-98759078D01*
X135050756Y-98759083D01*
X135222140Y-99079720D01*
X135222151Y-99079738D01*
X135424140Y-99382035D01*
X135424150Y-99382049D01*
X135654807Y-99663106D01*
X135911893Y-99920192D01*
X135911898Y-99920196D01*
X135911899Y-99920197D01*
X136192956Y-100150854D01*
X136495268Y-100352853D01*
X136495277Y-100352858D01*
X136495279Y-100352859D01*
X136815916Y-100524243D01*
X136815918Y-100524243D01*
X136815924Y-100524247D01*
X137151836Y-100663386D01*
X137499767Y-100768930D01*
X137499773Y-100768931D01*
X137499776Y-100768932D01*
X137499787Y-100768935D01*
X137856369Y-100839862D01*
X138218206Y-100875500D01*
X138218209Y-100875500D01*
X138581791Y-100875500D01*
X138581794Y-100875500D01*
X138943631Y-100839862D01*
X139013045Y-100826054D01*
X139300212Y-100768935D01*
X139300223Y-100768932D01*
X139300223Y-100768931D01*
X139300233Y-100768930D01*
X139648164Y-100663386D01*
X139984076Y-100524247D01*
X140304732Y-100352853D01*
X140607044Y-100150854D01*
X140888101Y-99920197D01*
X141145197Y-99663101D01*
X141375854Y-99382044D01*
X141577853Y-99079732D01*
X141749247Y-98759076D01*
X141888386Y-98423164D01*
X141993930Y-98075233D01*
X141993932Y-98075223D01*
X141993935Y-98075212D01*
X142064862Y-97718630D01*
X142100500Y-97356790D01*
X142100500Y-96993209D01*
X188074500Y-96993209D01*
X188074500Y-97356790D01*
X188110137Y-97718630D01*
X188181064Y-98075212D01*
X188181067Y-98075223D01*
X188286614Y-98423165D01*
X188425754Y-98759078D01*
X188425756Y-98759083D01*
X188597140Y-99079720D01*
X188597151Y-99079738D01*
X188799140Y-99382035D01*
X188799150Y-99382049D01*
X189029807Y-99663106D01*
X189286893Y-99920192D01*
X189286898Y-99920196D01*
X189286899Y-99920197D01*
X189567956Y-100150854D01*
X189870268Y-100352853D01*
X189870277Y-100352858D01*
X189870279Y-100352859D01*
X190190916Y-100524243D01*
X190190918Y-100524243D01*
X190190924Y-100524247D01*
X190526836Y-100663386D01*
X190874767Y-100768930D01*
X190874773Y-100768931D01*
X190874776Y-100768932D01*
X190874787Y-100768935D01*
X191231369Y-100839862D01*
X191593206Y-100875500D01*
X191593209Y-100875500D01*
X191956791Y-100875500D01*
X191956794Y-100875500D01*
X192318631Y-100839862D01*
X192388045Y-100826054D01*
X192675212Y-100768935D01*
X192675223Y-100768932D01*
X192675223Y-100768931D01*
X192675233Y-100768930D01*
X193023164Y-100663386D01*
X193359076Y-100524247D01*
X193679732Y-100352853D01*
X193982044Y-100150854D01*
X194263101Y-99920197D01*
X194520197Y-99663101D01*
X194750854Y-99382044D01*
X194952853Y-99079732D01*
X195124247Y-98759076D01*
X195263386Y-98423164D01*
X195368930Y-98075233D01*
X195368932Y-98075223D01*
X195368935Y-98075212D01*
X195439862Y-97718630D01*
X195475500Y-97356790D01*
X195475500Y-96993209D01*
X195439862Y-96631369D01*
X195368935Y-96274787D01*
X195368932Y-96274776D01*
X195368931Y-96274773D01*
X195368930Y-96274767D01*
X195263386Y-95926836D01*
X195124247Y-95590924D01*
X194952853Y-95270268D01*
X194750854Y-94967956D01*
X194520197Y-94686899D01*
X194520196Y-94686898D01*
X194520192Y-94686893D01*
X194263106Y-94429807D01*
X193982049Y-94199150D01*
X193982048Y-94199149D01*
X193982044Y-94199146D01*
X193679732Y-93997147D01*
X193679727Y-93997144D01*
X193679720Y-93997140D01*
X193359083Y-93825756D01*
X193359078Y-93825754D01*
X193310873Y-93805787D01*
X193260690Y-93785000D01*
X193023165Y-93686614D01*
X192675223Y-93581067D01*
X192675212Y-93581064D01*
X192318630Y-93510137D01*
X192046020Y-93483288D01*
X191956794Y-93474500D01*
X191593206Y-93474500D01*
X191510679Y-93482628D01*
X191231369Y-93510137D01*
X190874787Y-93581064D01*
X190874776Y-93581067D01*
X190526834Y-93686614D01*
X190190921Y-93825754D01*
X190190916Y-93825756D01*
X189870279Y-93997140D01*
X189870261Y-93997151D01*
X189567964Y-94199140D01*
X189567950Y-94199150D01*
X189286893Y-94429807D01*
X189029807Y-94686893D01*
X188799150Y-94967950D01*
X188799140Y-94967964D01*
X188597151Y-95270261D01*
X188597140Y-95270279D01*
X188425756Y-95590916D01*
X188425754Y-95590921D01*
X188286614Y-95926834D01*
X188181067Y-96274776D01*
X188181064Y-96274787D01*
X188110137Y-96631369D01*
X188074500Y-96993209D01*
X142100500Y-96993209D01*
X142064862Y-96631369D01*
X141993935Y-96274787D01*
X141993932Y-96274776D01*
X141993931Y-96274773D01*
X141993930Y-96274767D01*
X141888386Y-95926836D01*
X141749247Y-95590924D01*
X141577853Y-95270268D01*
X141375854Y-94967956D01*
X141145197Y-94686899D01*
X141145196Y-94686898D01*
X141145192Y-94686893D01*
X140888106Y-94429807D01*
X140607049Y-94199150D01*
X140607048Y-94199149D01*
X140607044Y-94199146D01*
X140304732Y-93997147D01*
X140304727Y-93997144D01*
X140304720Y-93997140D01*
X139984083Y-93825756D01*
X139984078Y-93825754D01*
X139935873Y-93805787D01*
X139885690Y-93785000D01*
X139648165Y-93686614D01*
X139300223Y-93581067D01*
X139300212Y-93581064D01*
X138943630Y-93510137D01*
X138671020Y-93483288D01*
X138581794Y-93474500D01*
X138218206Y-93474500D01*
X138135679Y-93482628D01*
X137856369Y-93510137D01*
X137499787Y-93581064D01*
X137499776Y-93581067D01*
X137151834Y-93686614D01*
X136815921Y-93825754D01*
X136815916Y-93825756D01*
X136495279Y-93997140D01*
X136495261Y-93997151D01*
X136192964Y-94199140D01*
X136192950Y-94199150D01*
X135911893Y-94429807D01*
X135654807Y-94686893D01*
X135424150Y-94967950D01*
X135424140Y-94967964D01*
X135222151Y-95270261D01*
X135222140Y-95270279D01*
X135050756Y-95590916D01*
X135050754Y-95590921D01*
X134911614Y-95926834D01*
X134806067Y-96274776D01*
X134806064Y-96274787D01*
X134735137Y-96631369D01*
X134699500Y-96993209D01*
X134232309Y-96993209D01*
X134227367Y-91281650D01*
X142421200Y-91281650D01*
X142421200Y-91518354D01*
X142421874Y-91522607D01*
X142458229Y-91752144D01*
X142458229Y-91752147D01*
X142531372Y-91977258D01*
X142638835Y-92188165D01*
X142777966Y-92379662D01*
X142945340Y-92547036D01*
X143136837Y-92686167D01*
X143347741Y-92793628D01*
X143347743Y-92793629D01*
X143572855Y-92866772D01*
X143572856Y-92866772D01*
X143572859Y-92866773D01*
X143806648Y-92903802D01*
X143806649Y-92903802D01*
X144043351Y-92903802D01*
X144043352Y-92903802D01*
X144277141Y-92866773D01*
X144277144Y-92866772D01*
X144277145Y-92866772D01*
X144502256Y-92793629D01*
X144502256Y-92793628D01*
X144502259Y-92793628D01*
X144713163Y-92686167D01*
X144904660Y-92547036D01*
X145072034Y-92379662D01*
X145211165Y-92188165D01*
X145318626Y-91977261D01*
X145391771Y-91752143D01*
X145428800Y-91518354D01*
X145428800Y-91281650D01*
X145391771Y-91047861D01*
X145391770Y-91047857D01*
X145391770Y-91047856D01*
X145318627Y-90822745D01*
X145301942Y-90789999D01*
X145211165Y-90611839D01*
X145072034Y-90420342D01*
X145017649Y-90365957D01*
X144984165Y-90304635D01*
X144989149Y-90234943D01*
X145006066Y-90203964D01*
X145016496Y-90190032D01*
X145019291Y-90182540D01*
X145039890Y-90127309D01*
X145066791Y-90055184D01*
X145073200Y-89995574D01*
X145073199Y-88985634D01*
X153539500Y-88985634D01*
X153539500Y-89164365D01*
X153567460Y-89340898D01*
X153567460Y-89340901D01*
X153622689Y-89510878D01*
X153622691Y-89510881D01*
X153703833Y-89670132D01*
X153808889Y-89814728D01*
X153935272Y-89941111D01*
X154079868Y-90046167D01*
X154239119Y-90127309D01*
X154239121Y-90127310D01*
X154397670Y-90178825D01*
X154409103Y-90182540D01*
X154585634Y-90210500D01*
X154585635Y-90210500D01*
X154764365Y-90210500D01*
X154764366Y-90210500D01*
X154940897Y-90182540D01*
X154940900Y-90182539D01*
X154940901Y-90182539D01*
X155110878Y-90127310D01*
X155110878Y-90127309D01*
X155110881Y-90127309D01*
X155270132Y-90046167D01*
X155414728Y-89941111D01*
X155490020Y-89865819D01*
X155551343Y-89832334D01*
X155577701Y-89829500D01*
X158911111Y-89829500D01*
X158978150Y-89849185D01*
X158998792Y-89865819D01*
X161603262Y-92470288D01*
X161636747Y-92531611D01*
X161638054Y-92577367D01*
X161623598Y-92668636D01*
X161623598Y-92881357D01*
X161656874Y-93091455D01*
X161722604Y-93293755D01*
X161722605Y-93293758D01*
X161814699Y-93474500D01*
X161819177Y-93483288D01*
X161944208Y-93655378D01*
X162094620Y-93805790D01*
X162266710Y-93930821D01*
X162359668Y-93978185D01*
X162456239Y-94027392D01*
X162456242Y-94027393D01*
X162557392Y-94060258D01*
X162658544Y-94093124D01*
X162868640Y-94126400D01*
X162868641Y-94126400D01*
X163081355Y-94126400D01*
X163081356Y-94126400D01*
X163291452Y-94093124D01*
X163493756Y-94027392D01*
X163683286Y-93930821D01*
X163855376Y-93805790D01*
X164005788Y-93655378D01*
X164130819Y-93483288D01*
X164227390Y-93293758D01*
X164293122Y-93091454D01*
X164326398Y-92881358D01*
X164326398Y-92668642D01*
X165123600Y-92668642D01*
X165123600Y-92881357D01*
X165156876Y-93091455D01*
X165222606Y-93293755D01*
X165222607Y-93293758D01*
X165314701Y-93474500D01*
X165319179Y-93483288D01*
X165444210Y-93655378D01*
X165594622Y-93805790D01*
X165766712Y-93930821D01*
X165859670Y-93978185D01*
X165956241Y-94027392D01*
X165956244Y-94027393D01*
X166057394Y-94060258D01*
X166158546Y-94093124D01*
X166368642Y-94126400D01*
X166368643Y-94126400D01*
X166581357Y-94126400D01*
X166581358Y-94126400D01*
X166791454Y-94093124D01*
X166993758Y-94027392D01*
X167183288Y-93930821D01*
X167355378Y-93805790D01*
X167505790Y-93655378D01*
X167630821Y-93483288D01*
X167727392Y-93293758D01*
X167793124Y-93091454D01*
X167826400Y-92881358D01*
X167826400Y-92668642D01*
X167793124Y-92458546D01*
X167727392Y-92256242D01*
X167727392Y-92256241D01*
X167630820Y-92066711D01*
X167505790Y-91894622D01*
X167355378Y-91744210D01*
X167183288Y-91619179D01*
X166993758Y-91522607D01*
X166993755Y-91522606D01*
X166791455Y-91456876D01*
X166616096Y-91429102D01*
X166581358Y-91423600D01*
X166368642Y-91423600D01*
X166333904Y-91429102D01*
X166158544Y-91456876D01*
X165956244Y-91522606D01*
X165956241Y-91522607D01*
X165766711Y-91619179D01*
X165668527Y-91690514D01*
X165594622Y-91744210D01*
X165594620Y-91744212D01*
X165594619Y-91744212D01*
X165444212Y-91894619D01*
X165444212Y-91894620D01*
X165444210Y-91894622D01*
X165390514Y-91968527D01*
X165319179Y-92066711D01*
X165222607Y-92256241D01*
X165222606Y-92256244D01*
X165156876Y-92458544D01*
X165123600Y-92668642D01*
X164326398Y-92668642D01*
X164293122Y-92458546D01*
X164227390Y-92256242D01*
X164227390Y-92256241D01*
X164130818Y-92066711D01*
X164005788Y-91894622D01*
X163855376Y-91744210D01*
X163683286Y-91619179D01*
X163493756Y-91522607D01*
X163493753Y-91522606D01*
X163291453Y-91456876D01*
X163116094Y-91429102D01*
X163081356Y-91423600D01*
X162868640Y-91423600D01*
X162868635Y-91423600D01*
X162777365Y-91438056D01*
X162708072Y-91429102D01*
X162670286Y-91403264D01*
X161056598Y-89789575D01*
X160975004Y-89707981D01*
X189300000Y-89707981D01*
X189300000Y-89902018D01*
X189337851Y-90092306D01*
X189337853Y-90092314D01*
X189412102Y-90271568D01*
X189412106Y-90271575D01*
X189433240Y-90303204D01*
X189433241Y-90303205D01*
X189931446Y-89805000D01*
X189433240Y-89306794D01*
X189412104Y-89338426D01*
X189412103Y-89338428D01*
X189337853Y-89517685D01*
X189337851Y-89517693D01*
X189300000Y-89707981D01*
X160975004Y-89707981D01*
X160354155Y-89087131D01*
X160220264Y-88953240D01*
X189786794Y-88953240D01*
X190374096Y-89540542D01*
X190407581Y-89601865D01*
X190407236Y-89606681D01*
X190330750Y-89575000D01*
X190239250Y-89575000D01*
X190154715Y-89610015D01*
X190090015Y-89674715D01*
X190055000Y-89759250D01*
X190055000Y-89850750D01*
X190090015Y-89935285D01*
X190154715Y-89999985D01*
X190239250Y-90035000D01*
X190330750Y-90035000D01*
X190404060Y-90004634D01*
X190402596Y-90025110D01*
X190374095Y-90069457D01*
X189786794Y-90656758D01*
X189786794Y-90656759D01*
X189818431Y-90677898D01*
X189997681Y-90752145D01*
X189997693Y-90752148D01*
X190187981Y-90789999D01*
X190187984Y-90790000D01*
X190382016Y-90790000D01*
X190536808Y-90759209D01*
X190606400Y-90765436D01*
X190661577Y-90808299D01*
X190684822Y-90874188D01*
X190685000Y-90880826D01*
X190685000Y-91062844D01*
X190691401Y-91122372D01*
X190691403Y-91122379D01*
X190741645Y-91257086D01*
X190741649Y-91257093D01*
X190827809Y-91372187D01*
X190827812Y-91372190D01*
X190942906Y-91458350D01*
X190942913Y-91458354D01*
X191077620Y-91508596D01*
X191077627Y-91508598D01*
X191137155Y-91514999D01*
X191137172Y-91515000D01*
X193475000Y-91515000D01*
X193475000Y-88095000D01*
X191137155Y-88095000D01*
X191077627Y-88101401D01*
X191077620Y-88101403D01*
X190942913Y-88151645D01*
X190942906Y-88151649D01*
X190827812Y-88237809D01*
X190827809Y-88237812D01*
X190741649Y-88352906D01*
X190741645Y-88352913D01*
X190691403Y-88487620D01*
X190691401Y-88487627D01*
X190685000Y-88547155D01*
X190685000Y-88729173D01*
X190665315Y-88796212D01*
X190612511Y-88841967D01*
X190543353Y-88851911D01*
X190536809Y-88850790D01*
X190382017Y-88820000D01*
X190187983Y-88820000D01*
X189997693Y-88857851D01*
X189997685Y-88857853D01*
X189818428Y-88932103D01*
X189818426Y-88932104D01*
X189786794Y-88953240D01*
X160220264Y-88953240D01*
X159755966Y-88488942D01*
X159714771Y-88461417D01*
X159632387Y-88406370D01*
X159632384Y-88406368D01*
X159632383Y-88406368D01*
X159551953Y-88373053D01*
X159495078Y-88349495D01*
X159470892Y-88344684D01*
X159349312Y-88320499D01*
X159349310Y-88320499D01*
X159200686Y-88320499D01*
X159194572Y-88320499D01*
X159194552Y-88320500D01*
X155577701Y-88320500D01*
X155510662Y-88300815D01*
X155490020Y-88284181D01*
X155414729Y-88208890D01*
X155414196Y-88208503D01*
X155270132Y-88103833D01*
X155110881Y-88022691D01*
X155110878Y-88022689D01*
X154940899Y-87967460D01*
X154823209Y-87948820D01*
X154764366Y-87939500D01*
X154585634Y-87939500D01*
X154526790Y-87948820D01*
X154409101Y-87967460D01*
X154409098Y-87967460D01*
X154239121Y-88022689D01*
X154239118Y-88022691D01*
X154079867Y-88103833D01*
X153935270Y-88208890D01*
X153808890Y-88335270D01*
X153703833Y-88479867D01*
X153622691Y-88639118D01*
X153622689Y-88639121D01*
X153567460Y-88809098D01*
X153567460Y-88809101D01*
X153539500Y-88985634D01*
X145073199Y-88985634D01*
X145073199Y-88604429D01*
X145066791Y-88544818D01*
X145045950Y-88488941D01*
X145016497Y-88409972D01*
X145016493Y-88409965D01*
X144930247Y-88294756D01*
X144930244Y-88294753D01*
X144815035Y-88208507D01*
X144815028Y-88208503D01*
X144680182Y-88158209D01*
X144680183Y-88158209D01*
X144620583Y-88151802D01*
X144620581Y-88151801D01*
X144620573Y-88151801D01*
X144620564Y-88151801D01*
X143229429Y-88151801D01*
X143229423Y-88151802D01*
X143169816Y-88158209D01*
X143034971Y-88208503D01*
X143034964Y-88208507D01*
X142919755Y-88294753D01*
X142919752Y-88294756D01*
X142833506Y-88409965D01*
X142833502Y-88409972D01*
X142783208Y-88544818D01*
X142776801Y-88604417D01*
X142776801Y-88604424D01*
X142776800Y-88604436D01*
X142776800Y-89995571D01*
X142776801Y-89995577D01*
X142783208Y-90055184D01*
X142833502Y-90190029D01*
X142833504Y-90190032D01*
X142843935Y-90203966D01*
X142868352Y-90269430D01*
X142853500Y-90337703D01*
X142832350Y-90365957D01*
X142777969Y-90420338D01*
X142777968Y-90420339D01*
X142777966Y-90420342D01*
X142718214Y-90502582D01*
X142638835Y-90611838D01*
X142531372Y-90822745D01*
X142458229Y-91047856D01*
X142458229Y-91047859D01*
X142458229Y-91047861D01*
X142421200Y-91281650D01*
X134227367Y-91281650D01*
X134216810Y-79081649D01*
X142421200Y-79081649D01*
X142421200Y-79318353D01*
X142432809Y-79391649D01*
X142458229Y-79552143D01*
X142458229Y-79552146D01*
X142531372Y-79777257D01*
X142629159Y-79969173D01*
X142638835Y-79988164D01*
X142777966Y-80179661D01*
X142945340Y-80347035D01*
X143010466Y-80394352D01*
X143053132Y-80449681D01*
X143059111Y-80519294D01*
X143037900Y-80567555D01*
X142942971Y-80698214D01*
X142860923Y-80859243D01*
X142805072Y-81031134D01*
X142776800Y-81209637D01*
X142776800Y-81390366D01*
X142801007Y-81543205D01*
X142805073Y-81568873D01*
X142860922Y-81740758D01*
X142940408Y-81896758D01*
X142942974Y-81901793D01*
X143049196Y-82047998D01*
X143176999Y-82175801D01*
X143177004Y-82175805D01*
X143209869Y-82199683D01*
X143252535Y-82255012D01*
X143258514Y-82324626D01*
X143225909Y-82386421D01*
X143209869Y-82400319D01*
X143177004Y-82424196D01*
X143176999Y-82424200D01*
X143049196Y-82552003D01*
X142942974Y-82698208D01*
X142860923Y-82859241D01*
X142860922Y-82859243D01*
X142860922Y-82859244D01*
X142832997Y-82945186D01*
X142805072Y-83031132D01*
X142776800Y-83209635D01*
X142776800Y-83390364D01*
X142802068Y-83549902D01*
X142805073Y-83568871D01*
X142857863Y-83731342D01*
X142860923Y-83740758D01*
X142942974Y-83901791D01*
X143049196Y-84047996D01*
X143177001Y-84175801D01*
X143209870Y-84199681D01*
X143252537Y-84255010D01*
X143258517Y-84324624D01*
X143225911Y-84386419D01*
X143209872Y-84400318D01*
X143176999Y-84424201D01*
X143049196Y-84552004D01*
X142942974Y-84698209D01*
X142860923Y-84859242D01*
X142805072Y-85031133D01*
X142776800Y-85209636D01*
X142776800Y-85390366D01*
X142780603Y-85414375D01*
X142797138Y-85518777D01*
X142805073Y-85568872D01*
X142837892Y-85669879D01*
X142860923Y-85740759D01*
X142942974Y-85901792D01*
X143049196Y-86047997D01*
X143177003Y-86175804D01*
X143313817Y-86275203D01*
X143323212Y-86282029D01*
X143484244Y-86364079D01*
X143656129Y-86419928D01*
X143834635Y-86448201D01*
X143834636Y-86448201D01*
X144015364Y-86448201D01*
X144015365Y-86448201D01*
X144193871Y-86419928D01*
X144365756Y-86364079D01*
X144526788Y-86282029D01*
X144608879Y-86222386D01*
X144672996Y-86175804D01*
X144672998Y-86175801D01*
X144673002Y-86175799D01*
X144800798Y-86048003D01*
X144800800Y-86047999D01*
X144800803Y-86047997D01*
X144847385Y-85983880D01*
X144907028Y-85901789D01*
X144989078Y-85740757D01*
X145044927Y-85568872D01*
X145073200Y-85390366D01*
X145073200Y-85209636D01*
X145044927Y-85031130D01*
X144989078Y-84859245D01*
X144907028Y-84698213D01*
X144900753Y-84689576D01*
X144830242Y-84592524D01*
X144800803Y-84552005D01*
X144800799Y-84552000D01*
X144774525Y-84525726D01*
X158462250Y-84525726D01*
X158462250Y-84724393D01*
X158501004Y-84919221D01*
X158501006Y-84919229D01*
X158577027Y-85102761D01*
X158577032Y-85102770D01*
X158687396Y-85267940D01*
X158687399Y-85267944D01*
X158827865Y-85408410D01*
X158827869Y-85408413D01*
X158993039Y-85518777D01*
X158993045Y-85518780D01*
X158993046Y-85518781D01*
X159176581Y-85594804D01*
X159371416Y-85633559D01*
X159371420Y-85633560D01*
X159371421Y-85633560D01*
X159450666Y-85633560D01*
X159517705Y-85653245D01*
X159538347Y-85669879D01*
X160530257Y-86661790D01*
X160530264Y-86661796D01*
X160643437Y-86737415D01*
X160643440Y-86737417D01*
X160769188Y-86789503D01*
X160769193Y-86789505D01*
X160769197Y-86789505D01*
X160769198Y-86789506D01*
X160902689Y-86816060D01*
X160902692Y-86816060D01*
X163409154Y-86816060D01*
X163476193Y-86835745D01*
X163496830Y-86852374D01*
X163552866Y-86908410D01*
X163552870Y-86908414D01*
X163718039Y-87018777D01*
X163718045Y-87018780D01*
X163718046Y-87018781D01*
X163901581Y-87094804D01*
X164096416Y-87133559D01*
X164096420Y-87133560D01*
X164096421Y-87133560D01*
X164295080Y-87133560D01*
X164295081Y-87133559D01*
X164489919Y-87094804D01*
X164673454Y-87018781D01*
X164838631Y-86908413D01*
X164979103Y-86767941D01*
X164990646Y-86750666D01*
X176491500Y-86750666D01*
X176491500Y-86949333D01*
X176530254Y-87144161D01*
X176530256Y-87144169D01*
X176606277Y-87327701D01*
X176606282Y-87327710D01*
X176716646Y-87492880D01*
X176716649Y-87492884D01*
X176857115Y-87633350D01*
X176857119Y-87633353D01*
X177022289Y-87743717D01*
X177022295Y-87743720D01*
X177022296Y-87743721D01*
X177205831Y-87819744D01*
X177400666Y-87858499D01*
X177400670Y-87858500D01*
X177400671Y-87858500D01*
X177599330Y-87858500D01*
X177599331Y-87858499D01*
X177794169Y-87819744D01*
X177977704Y-87743721D01*
X178142881Y-87633353D01*
X178283353Y-87492881D01*
X178393721Y-87327704D01*
X178469744Y-87144169D01*
X178508500Y-86949329D01*
X178508500Y-86750671D01*
X178469744Y-86555831D01*
X178393721Y-86372296D01*
X178393720Y-86372295D01*
X178393717Y-86372289D01*
X178283353Y-86207119D01*
X178283350Y-86207115D01*
X178227319Y-86151084D01*
X178193834Y-86089761D01*
X178191000Y-86063403D01*
X178191000Y-83637583D01*
X178210685Y-83570544D01*
X178227319Y-83549902D01*
X180829240Y-80947981D01*
X189300000Y-80947981D01*
X189300000Y-81142018D01*
X189337851Y-81332306D01*
X189337853Y-81332314D01*
X189412102Y-81511568D01*
X189412106Y-81511575D01*
X189433240Y-81543204D01*
X189433241Y-81543205D01*
X189931446Y-81045000D01*
X189433240Y-80546794D01*
X189412104Y-80578426D01*
X189412103Y-80578428D01*
X189337853Y-80757685D01*
X189337851Y-80757693D01*
X189300000Y-80947981D01*
X180829240Y-80947981D01*
X181583981Y-80193240D01*
X189786794Y-80193240D01*
X190374096Y-80780542D01*
X190407581Y-80841865D01*
X190407236Y-80846681D01*
X190330750Y-80815000D01*
X190239250Y-80815000D01*
X190154715Y-80850015D01*
X190090015Y-80914715D01*
X190055000Y-80999250D01*
X190055000Y-81090750D01*
X190090015Y-81175285D01*
X190154715Y-81239985D01*
X190239250Y-81275000D01*
X190330750Y-81275000D01*
X190404060Y-81244634D01*
X190402596Y-81265110D01*
X190374095Y-81309457D01*
X189786794Y-81896758D01*
X189786794Y-81896759D01*
X189818431Y-81917898D01*
X189997681Y-81992145D01*
X189997693Y-81992148D01*
X190187981Y-82029999D01*
X190187984Y-82030000D01*
X190382016Y-82030000D01*
X190536808Y-81999209D01*
X190606400Y-82005436D01*
X190661577Y-82048299D01*
X190684822Y-82114188D01*
X190685000Y-82120826D01*
X190685000Y-82302844D01*
X190691401Y-82362372D01*
X190691403Y-82362379D01*
X190741645Y-82497086D01*
X190741649Y-82497093D01*
X190827809Y-82612187D01*
X190827812Y-82612190D01*
X190942906Y-82698350D01*
X190942913Y-82698354D01*
X191077620Y-82748596D01*
X191077627Y-82748598D01*
X191137155Y-82754999D01*
X191137172Y-82755000D01*
X193475000Y-82755000D01*
X193475000Y-79335000D01*
X191137155Y-79335000D01*
X191077627Y-79341401D01*
X191077620Y-79341403D01*
X190942913Y-79391645D01*
X190942906Y-79391649D01*
X190827812Y-79477809D01*
X190827809Y-79477812D01*
X190741649Y-79592906D01*
X190741645Y-79592913D01*
X190691403Y-79727620D01*
X190691401Y-79727627D01*
X190685000Y-79787155D01*
X190685000Y-79969173D01*
X190665315Y-80036212D01*
X190612511Y-80081967D01*
X190543353Y-80091911D01*
X190536809Y-80090790D01*
X190382017Y-80060000D01*
X190187983Y-80060000D01*
X189997693Y-80097851D01*
X189997685Y-80097853D01*
X189818428Y-80172103D01*
X189818426Y-80172104D01*
X189786794Y-80193240D01*
X181583981Y-80193240D01*
X182507402Y-79269819D01*
X182568725Y-79236334D01*
X182595083Y-79233500D01*
X182674330Y-79233500D01*
X182674331Y-79233499D01*
X182869169Y-79194744D01*
X183052704Y-79118721D01*
X183217881Y-79008353D01*
X183358353Y-78867881D01*
X183468721Y-78702704D01*
X183544744Y-78519169D01*
X183583500Y-78324329D01*
X183583500Y-78125671D01*
X183544744Y-77930831D01*
X183468721Y-77747296D01*
X183468720Y-77747295D01*
X183468717Y-77747289D01*
X183358353Y-77582119D01*
X183358350Y-77582115D01*
X183217884Y-77441649D01*
X183217880Y-77441646D01*
X183052710Y-77331282D01*
X183052701Y-77331277D01*
X182869169Y-77255256D01*
X182869161Y-77255254D01*
X182674333Y-77216500D01*
X182674329Y-77216500D01*
X182475671Y-77216500D01*
X182475666Y-77216500D01*
X182280838Y-77255254D01*
X182280830Y-77255256D01*
X182097298Y-77331277D01*
X182097289Y-77331282D01*
X181932119Y-77441646D01*
X181932115Y-77441649D01*
X181791649Y-77582115D01*
X181791646Y-77582119D01*
X181681282Y-77747289D01*
X181681277Y-77747298D01*
X181605256Y-77930830D01*
X181605254Y-77930838D01*
X181566500Y-78125666D01*
X181566500Y-78204915D01*
X181546815Y-78271954D01*
X181530181Y-78292596D01*
X176963269Y-82859507D01*
X176963263Y-82859514D01*
X176887644Y-82972687D01*
X176887642Y-82972690D01*
X176835556Y-83098438D01*
X176835553Y-83098448D01*
X176809000Y-83231939D01*
X176809000Y-86063403D01*
X176789315Y-86130442D01*
X176772681Y-86151084D01*
X176716649Y-86207115D01*
X176716646Y-86207119D01*
X176606282Y-86372289D01*
X176606277Y-86372298D01*
X176530256Y-86555830D01*
X176530254Y-86555838D01*
X176491500Y-86750666D01*
X164990646Y-86750666D01*
X165089471Y-86602764D01*
X165165494Y-86419229D01*
X165204250Y-86224389D01*
X165204250Y-86025731D01*
X165165494Y-85830891D01*
X165089471Y-85647356D01*
X165089470Y-85647355D01*
X165089467Y-85647349D01*
X164979103Y-85482179D01*
X164979100Y-85482175D01*
X164838634Y-85341709D01*
X164838630Y-85341706D01*
X164673460Y-85231342D01*
X164673451Y-85231337D01*
X164489919Y-85155316D01*
X164489911Y-85155314D01*
X164295083Y-85116560D01*
X164295079Y-85116560D01*
X164096421Y-85116560D01*
X164096416Y-85116560D01*
X163901588Y-85155314D01*
X163901580Y-85155316D01*
X163718048Y-85231337D01*
X163718039Y-85231342D01*
X163552870Y-85341705D01*
X163524853Y-85369723D01*
X163496833Y-85397742D01*
X163435513Y-85431226D01*
X163409154Y-85434060D01*
X161308334Y-85434060D01*
X161241295Y-85414375D01*
X161220653Y-85397741D01*
X160515569Y-84692657D01*
X160482084Y-84631334D01*
X160479250Y-84604976D01*
X160479250Y-84525730D01*
X160479249Y-84525726D01*
X160440495Y-84330898D01*
X160440494Y-84330891D01*
X160364471Y-84147356D01*
X160364470Y-84147355D01*
X160364467Y-84147349D01*
X160254103Y-83982179D01*
X160254100Y-83982175D01*
X160113634Y-83841709D01*
X160113630Y-83841706D01*
X159948460Y-83731342D01*
X159948451Y-83731337D01*
X159764919Y-83655316D01*
X159764911Y-83655314D01*
X159570083Y-83616560D01*
X159570079Y-83616560D01*
X159371421Y-83616560D01*
X159371416Y-83616560D01*
X159176588Y-83655314D01*
X159176580Y-83655316D01*
X158993048Y-83731337D01*
X158993039Y-83731342D01*
X158827869Y-83841706D01*
X158827865Y-83841709D01*
X158687399Y-83982175D01*
X158687396Y-83982179D01*
X158577032Y-84147349D01*
X158577027Y-84147358D01*
X158501006Y-84330890D01*
X158501004Y-84330898D01*
X158462250Y-84525726D01*
X144774525Y-84525726D01*
X144673002Y-84424203D01*
X144640128Y-84400319D01*
X144597462Y-84344989D01*
X144591483Y-84275376D01*
X144624088Y-84213580D01*
X144640124Y-84199684D01*
X144673002Y-84175798D01*
X144800798Y-84048002D01*
X144800800Y-84047998D01*
X144800803Y-84047996D01*
X144848624Y-83982175D01*
X144907028Y-83901788D01*
X144989078Y-83740756D01*
X145044927Y-83568871D01*
X145073200Y-83390365D01*
X145073200Y-83209635D01*
X145044927Y-83031129D01*
X144989078Y-82859244D01*
X144907028Y-82698212D01*
X144900202Y-82688817D01*
X144800803Y-82552003D01*
X144672998Y-82424198D01*
X144640131Y-82400320D01*
X144597465Y-82344991D01*
X144591484Y-82275378D01*
X144624089Y-82213582D01*
X144640131Y-82199682D01*
X144672998Y-82175803D01*
X144672998Y-82175802D01*
X144673002Y-82175800D01*
X144800798Y-82048004D01*
X144800800Y-82048000D01*
X144800803Y-82047998D01*
X144847385Y-81983881D01*
X144907028Y-81901790D01*
X144989078Y-81740758D01*
X145044927Y-81568873D01*
X145073200Y-81390367D01*
X145073200Y-81209637D01*
X145044927Y-81031131D01*
X144989078Y-80859246D01*
X144907028Y-80698214D01*
X144895863Y-80682847D01*
X144812100Y-80567555D01*
X144788620Y-80501749D01*
X144804446Y-80433695D01*
X144839534Y-80394351D01*
X144904656Y-80347038D01*
X144904656Y-80347037D01*
X144904660Y-80347035D01*
X145072034Y-80179661D01*
X145211165Y-79988164D01*
X145318626Y-79777260D01*
X145391771Y-79552142D01*
X145428800Y-79318353D01*
X145428800Y-79081649D01*
X145391771Y-78847860D01*
X145391770Y-78847856D01*
X145391770Y-78847855D01*
X145318627Y-78622744D01*
X145211164Y-78411837D01*
X145072034Y-78220341D01*
X144904660Y-78052967D01*
X144713163Y-77913836D01*
X144502256Y-77806373D01*
X144277144Y-77733230D01*
X144101799Y-77705458D01*
X144043352Y-77696201D01*
X143806648Y-77696201D01*
X143728718Y-77708544D01*
X143572857Y-77733230D01*
X143572854Y-77733230D01*
X143347743Y-77806373D01*
X143136836Y-77913836D01*
X143027580Y-77993215D01*
X142945340Y-78052967D01*
X142945338Y-78052969D01*
X142945337Y-78052969D01*
X142777968Y-78220338D01*
X142777968Y-78220339D01*
X142777966Y-78220341D01*
X142751856Y-78256278D01*
X142638835Y-78411837D01*
X142531372Y-78622744D01*
X142458229Y-78847855D01*
X142458229Y-78847858D01*
X142432809Y-79008353D01*
X142421200Y-79081649D01*
X134216810Y-79081649D01*
X134211542Y-72993209D01*
X134699500Y-72993209D01*
X134699500Y-73356790D01*
X134735137Y-73718630D01*
X134806064Y-74075212D01*
X134806067Y-74075223D01*
X134911614Y-74423165D01*
X135050754Y-74759078D01*
X135050756Y-74759083D01*
X135222140Y-75079720D01*
X135222151Y-75079738D01*
X135424140Y-75382035D01*
X135424150Y-75382049D01*
X135654807Y-75663106D01*
X135911893Y-75920192D01*
X135911898Y-75920196D01*
X135911899Y-75920197D01*
X136192956Y-76150854D01*
X136495268Y-76352853D01*
X136495277Y-76352858D01*
X136495279Y-76352859D01*
X136815916Y-76524243D01*
X136815918Y-76524243D01*
X136815924Y-76524247D01*
X137151836Y-76663386D01*
X137499767Y-76768930D01*
X137499773Y-76768931D01*
X137499776Y-76768932D01*
X137499787Y-76768935D01*
X137856369Y-76839862D01*
X138218206Y-76875500D01*
X138218209Y-76875500D01*
X138581791Y-76875500D01*
X138581794Y-76875500D01*
X138943631Y-76839862D01*
X139013045Y-76826054D01*
X139300212Y-76768935D01*
X139300223Y-76768932D01*
X139300223Y-76768931D01*
X139300233Y-76768930D01*
X139648164Y-76663386D01*
X139984076Y-76524247D01*
X140304732Y-76352853D01*
X140607044Y-76150854D01*
X140888101Y-75920197D01*
X141145197Y-75663101D01*
X141375854Y-75382044D01*
X141577853Y-75079732D01*
X141749247Y-74759076D01*
X141888386Y-74423164D01*
X141993930Y-74075233D01*
X141993932Y-74075223D01*
X141993935Y-74075212D01*
X142064862Y-73718630D01*
X142072683Y-73639222D01*
X142100500Y-73356794D01*
X142100500Y-72993206D01*
X142064862Y-72631369D01*
X142033052Y-72471446D01*
X141993935Y-72274787D01*
X141993932Y-72274776D01*
X141993931Y-72274773D01*
X141993930Y-72274767D01*
X141913857Y-72010803D01*
X144900000Y-72010803D01*
X144900000Y-72575000D01*
X146032096Y-72575000D01*
X146000000Y-72736358D01*
X146000000Y-72913642D01*
X146032096Y-73075000D01*
X144900001Y-73075000D01*
X144900001Y-73639197D01*
X144910400Y-73771332D01*
X144965377Y-73989519D01*
X145058428Y-74194374D01*
X145058431Y-74194380D01*
X145186559Y-74379323D01*
X145186569Y-74379335D01*
X145345664Y-74538430D01*
X145345676Y-74538440D01*
X145530619Y-74666568D01*
X145530625Y-74666571D01*
X145735480Y-74759622D01*
X145953667Y-74814599D01*
X146085810Y-74824999D01*
X146649999Y-74824999D01*
X146650000Y-74824998D01*
X146650000Y-73692904D01*
X146811358Y-73725000D01*
X146988642Y-73725000D01*
X147150000Y-73692904D01*
X147150000Y-74824999D01*
X147714182Y-74824999D01*
X147714197Y-74824998D01*
X147846332Y-74814599D01*
X148064519Y-74759622D01*
X148269374Y-74666571D01*
X148269380Y-74666568D01*
X148454323Y-74538440D01*
X148454335Y-74538430D01*
X148613430Y-74379335D01*
X148613440Y-74379323D01*
X148741568Y-74194380D01*
X148741571Y-74194374D01*
X148834622Y-73989519D01*
X148889599Y-73771332D01*
X148899999Y-73639196D01*
X148900000Y-73639184D01*
X148900000Y-73075000D01*
X147767904Y-73075000D01*
X147800000Y-72913642D01*
X147800000Y-72736358D01*
X147791549Y-72693872D01*
X149899500Y-72693872D01*
X149899500Y-72956127D01*
X149926123Y-73158339D01*
X149933730Y-73216116D01*
X149982658Y-73398717D01*
X150001602Y-73469418D01*
X150001605Y-73469428D01*
X150101953Y-73711690D01*
X150101958Y-73711700D01*
X150233075Y-73938803D01*
X150392718Y-74146851D01*
X150392726Y-74146860D01*
X150578140Y-74332274D01*
X150578148Y-74332281D01*
X150786196Y-74491924D01*
X151013299Y-74623041D01*
X151013309Y-74623046D01*
X151255571Y-74723394D01*
X151255581Y-74723398D01*
X151508884Y-74791270D01*
X151757188Y-74823960D01*
X151768864Y-74825498D01*
X151768880Y-74825500D01*
X151768887Y-74825500D01*
X152031113Y-74825500D01*
X152031120Y-74825500D01*
X152291116Y-74791270D01*
X152544419Y-74723398D01*
X152786697Y-74623043D01*
X153013803Y-74491924D01*
X153221851Y-74332282D01*
X153221855Y-74332277D01*
X153221860Y-74332274D01*
X153407274Y-74146860D01*
X153407277Y-74146855D01*
X153407282Y-74146851D01*
X153566924Y-73938803D01*
X153698043Y-73711697D01*
X153798398Y-73469419D01*
X153866270Y-73216116D01*
X153900500Y-72956120D01*
X153900500Y-72693905D01*
X157475000Y-72693905D01*
X157475000Y-72956094D01*
X157509220Y-73216009D01*
X157509222Y-73216020D01*
X157577075Y-73469255D01*
X157677404Y-73711471D01*
X157677409Y-73711482D01*
X157808488Y-73938516D01*
X157808494Y-73938524D01*
X157895080Y-74051365D01*
X158684521Y-73261923D01*
X158775924Y-73398717D01*
X158901283Y-73524076D01*
X159038074Y-73615477D01*
X158248633Y-74404917D01*
X158248633Y-74404918D01*
X158361475Y-74491505D01*
X158361483Y-74491511D01*
X158588517Y-74622590D01*
X158588528Y-74622595D01*
X158830744Y-74722924D01*
X159083979Y-74790777D01*
X159083990Y-74790779D01*
X159343905Y-74824999D01*
X159343920Y-74825000D01*
X159606080Y-74825000D01*
X159606094Y-74824999D01*
X159866009Y-74790779D01*
X159866020Y-74790777D01*
X160119255Y-74722924D01*
X160361471Y-74622595D01*
X160361482Y-74622590D01*
X160588516Y-74491511D01*
X160588534Y-74491499D01*
X160701365Y-74404919D01*
X160701365Y-74404917D01*
X159911924Y-73615477D01*
X160048717Y-73524076D01*
X160174076Y-73398717D01*
X160265477Y-73261925D01*
X161054917Y-74051365D01*
X161054919Y-74051365D01*
X161141499Y-73938534D01*
X161141511Y-73938516D01*
X161272590Y-73711482D01*
X161272595Y-73711471D01*
X161372924Y-73469255D01*
X161440777Y-73216020D01*
X161440779Y-73216009D01*
X161474999Y-72956094D01*
X161475000Y-72956080D01*
X161475000Y-72693919D01*
X161474999Y-72693905D01*
X161440779Y-72433990D01*
X161440777Y-72433979D01*
X161372924Y-72180744D01*
X161321171Y-72055801D01*
X161321170Y-72055799D01*
X161302522Y-72010777D01*
X162474500Y-72010777D01*
X162474500Y-73639208D01*
X162474501Y-73639223D01*
X162484904Y-73771413D01*
X162484905Y-73771420D01*
X162539902Y-73989678D01*
X162539903Y-73989681D01*
X162632991Y-74194622D01*
X162632997Y-74194632D01*
X162761174Y-74379645D01*
X162761178Y-74379650D01*
X162761181Y-74379654D01*
X162920346Y-74538819D01*
X162920350Y-74538822D01*
X162920354Y-74538825D01*
X163041262Y-74622590D01*
X163105374Y-74667007D01*
X163310317Y-74760096D01*
X163310321Y-74760097D01*
X163528579Y-74815094D01*
X163528581Y-74815094D01*
X163528588Y-74815096D01*
X163660783Y-74825500D01*
X165289216Y-74825499D01*
X165421412Y-74815096D01*
X165639683Y-74760096D01*
X165844626Y-74667007D01*
X166029654Y-74538819D01*
X166188819Y-74379654D01*
X166317007Y-74194626D01*
X166410096Y-73989683D01*
X166465096Y-73771412D01*
X166475500Y-73639217D01*
X166475499Y-72993209D01*
X188074500Y-72993209D01*
X188074500Y-73356790D01*
X188110137Y-73718630D01*
X188181064Y-74075212D01*
X188181067Y-74075223D01*
X188286614Y-74423165D01*
X188425754Y-74759078D01*
X188425756Y-74759083D01*
X188597140Y-75079720D01*
X188597151Y-75079738D01*
X188799140Y-75382035D01*
X188799150Y-75382049D01*
X189029807Y-75663106D01*
X189286893Y-75920192D01*
X189286898Y-75920196D01*
X189286899Y-75920197D01*
X189567956Y-76150854D01*
X189870268Y-76352853D01*
X189870277Y-76352858D01*
X189870279Y-76352859D01*
X190190916Y-76524243D01*
X190190918Y-76524243D01*
X190190924Y-76524247D01*
X190526836Y-76663386D01*
X190874767Y-76768930D01*
X190874773Y-76768931D01*
X190874776Y-76768932D01*
X190874787Y-76768935D01*
X191231369Y-76839862D01*
X191593206Y-76875500D01*
X191593209Y-76875500D01*
X191956791Y-76875500D01*
X191956794Y-76875500D01*
X192318631Y-76839862D01*
X192388045Y-76826054D01*
X192675212Y-76768935D01*
X192675223Y-76768932D01*
X192675223Y-76768931D01*
X192675233Y-76768930D01*
X193023164Y-76663386D01*
X193359076Y-76524247D01*
X193679732Y-76352853D01*
X193982044Y-76150854D01*
X194263101Y-75920197D01*
X194520197Y-75663101D01*
X194750854Y-75382044D01*
X194952853Y-75079732D01*
X195124247Y-74759076D01*
X195263386Y-74423164D01*
X195368930Y-74075233D01*
X195368932Y-74075223D01*
X195368935Y-74075212D01*
X195439862Y-73718630D01*
X195447683Y-73639222D01*
X195475500Y-73356794D01*
X195475500Y-72993206D01*
X195439862Y-72631369D01*
X195408052Y-72471446D01*
X195368935Y-72274787D01*
X195368932Y-72274776D01*
X195368931Y-72274773D01*
X195368930Y-72274767D01*
X195263386Y-71926836D01*
X195124247Y-71590924D01*
X195077330Y-71503149D01*
X194952859Y-71270279D01*
X194952858Y-71270277D01*
X194952853Y-71270268D01*
X194750854Y-70967956D01*
X194520197Y-70686899D01*
X194520196Y-70686898D01*
X194520192Y-70686893D01*
X194263106Y-70429807D01*
X193982049Y-70199150D01*
X193982048Y-70199149D01*
X193982044Y-70199146D01*
X193679732Y-69997147D01*
X193679727Y-69997144D01*
X193679720Y-69997140D01*
X193359083Y-69825756D01*
X193359078Y-69825754D01*
X193023165Y-69686614D01*
X192675223Y-69581067D01*
X192675212Y-69581064D01*
X192318630Y-69510137D01*
X192046111Y-69483296D01*
X191956794Y-69474500D01*
X191593206Y-69474500D01*
X191510679Y-69482628D01*
X191231369Y-69510137D01*
X190874787Y-69581064D01*
X190874776Y-69581067D01*
X190526834Y-69686614D01*
X190190921Y-69825754D01*
X190190916Y-69825756D01*
X189870279Y-69997140D01*
X189870261Y-69997151D01*
X189567964Y-70199140D01*
X189567950Y-70199150D01*
X189286893Y-70429807D01*
X189029807Y-70686893D01*
X188799150Y-70967950D01*
X188799140Y-70967964D01*
X188597151Y-71270261D01*
X188597140Y-71270279D01*
X188425756Y-71590916D01*
X188425754Y-71590921D01*
X188286614Y-71926834D01*
X188181067Y-72274776D01*
X188181064Y-72274787D01*
X188110137Y-72631369D01*
X188103977Y-72693919D01*
X188078154Y-72956113D01*
X188074500Y-72993209D01*
X166475499Y-72993209D01*
X166475499Y-72825000D01*
X166475499Y-72010791D01*
X166475498Y-72010783D01*
X166465096Y-71878588D01*
X166410096Y-71660317D01*
X166317007Y-71455374D01*
X166221644Y-71317726D01*
X166188825Y-71270354D01*
X166188822Y-71270350D01*
X166188819Y-71270346D01*
X166029654Y-71111181D01*
X166029650Y-71111178D01*
X166029645Y-71111174D01*
X165844632Y-70982997D01*
X165844630Y-70982995D01*
X165844626Y-70982993D01*
X165811538Y-70967964D01*
X165639681Y-70889903D01*
X165639678Y-70889902D01*
X165421420Y-70834905D01*
X165421413Y-70834904D01*
X165377347Y-70831436D01*
X165289217Y-70824500D01*
X165289215Y-70824500D01*
X163660791Y-70824500D01*
X163660776Y-70824501D01*
X163528586Y-70834904D01*
X163528579Y-70834905D01*
X163310321Y-70889902D01*
X163310318Y-70889903D01*
X163105377Y-70982991D01*
X163105367Y-70982997D01*
X162920354Y-71111174D01*
X162920342Y-71111184D01*
X162761184Y-71270342D01*
X162761174Y-71270354D01*
X162632997Y-71455367D01*
X162632991Y-71455377D01*
X162539903Y-71660318D01*
X162539902Y-71660321D01*
X162484905Y-71878579D01*
X162484904Y-71878586D01*
X162474500Y-72010777D01*
X161302522Y-72010777D01*
X161272598Y-71938533D01*
X161272590Y-71938517D01*
X161141511Y-71711483D01*
X161141505Y-71711475D01*
X161054918Y-71598633D01*
X161054917Y-71598633D01*
X160265476Y-72388074D01*
X160174076Y-72251283D01*
X160048717Y-72125924D01*
X159911923Y-72034521D01*
X160701365Y-71245080D01*
X160588524Y-71158494D01*
X160588516Y-71158488D01*
X160361482Y-71027409D01*
X160361471Y-71027404D01*
X160119255Y-70927075D01*
X159866020Y-70859222D01*
X159866009Y-70859220D01*
X159606094Y-70825000D01*
X159343905Y-70825000D01*
X159083990Y-70859220D01*
X159083979Y-70859222D01*
X158830744Y-70927075D01*
X158588528Y-71027404D01*
X158588517Y-71027409D01*
X158361471Y-71158496D01*
X158248633Y-71245079D01*
X158248633Y-71245080D01*
X159038075Y-72034522D01*
X158901283Y-72125924D01*
X158775924Y-72251283D01*
X158684522Y-72388075D01*
X157895080Y-71598633D01*
X157895079Y-71598633D01*
X157808496Y-71711471D01*
X157677409Y-71938517D01*
X157677404Y-71938528D01*
X157577075Y-72180744D01*
X157509222Y-72433979D01*
X157509220Y-72433990D01*
X157475000Y-72693905D01*
X153900500Y-72693905D01*
X153900500Y-72693880D01*
X153866270Y-72433884D01*
X153798398Y-72180581D01*
X153798394Y-72180571D01*
X153698046Y-71938309D01*
X153698041Y-71938299D01*
X153566924Y-71711196D01*
X153407281Y-71503148D01*
X153407274Y-71503140D01*
X153221860Y-71317726D01*
X153221851Y-71317718D01*
X153013803Y-71158075D01*
X152786700Y-71026958D01*
X152786690Y-71026953D01*
X152544428Y-70926605D01*
X152544421Y-70926603D01*
X152544419Y-70926602D01*
X152291116Y-70858730D01*
X152233339Y-70851123D01*
X152031127Y-70824500D01*
X152031120Y-70824500D01*
X151768880Y-70824500D01*
X151768872Y-70824500D01*
X151537772Y-70854926D01*
X151508884Y-70858730D01*
X151255581Y-70926602D01*
X151255571Y-70926605D01*
X151013309Y-71026953D01*
X151013299Y-71026958D01*
X150786196Y-71158075D01*
X150578148Y-71317718D01*
X150392718Y-71503148D01*
X150233075Y-71711196D01*
X150101958Y-71938299D01*
X150101953Y-71938309D01*
X150001605Y-72180571D01*
X150001602Y-72180581D01*
X149933730Y-72433884D01*
X149933716Y-72433990D01*
X149899500Y-72693872D01*
X147791549Y-72693872D01*
X147767904Y-72575000D01*
X148899999Y-72575000D01*
X148899999Y-72010817D01*
X148899998Y-72010802D01*
X148889599Y-71878667D01*
X148834622Y-71660480D01*
X148741571Y-71455625D01*
X148741568Y-71455619D01*
X148613440Y-71270676D01*
X148613430Y-71270664D01*
X148454335Y-71111569D01*
X148454323Y-71111559D01*
X148269380Y-70983431D01*
X148269374Y-70983428D01*
X148064519Y-70890377D01*
X147846332Y-70835400D01*
X147714196Y-70825000D01*
X147150000Y-70825000D01*
X147150000Y-71957095D01*
X146988642Y-71925000D01*
X146811358Y-71925000D01*
X146650000Y-71957095D01*
X146650000Y-70825000D01*
X146085817Y-70825000D01*
X146085802Y-70825001D01*
X145953667Y-70835400D01*
X145735480Y-70890377D01*
X145530625Y-70983428D01*
X145530619Y-70983431D01*
X145345676Y-71111559D01*
X145345664Y-71111569D01*
X145186569Y-71270664D01*
X145186559Y-71270676D01*
X145058431Y-71455619D01*
X145058428Y-71455625D01*
X144965377Y-71660480D01*
X144910400Y-71878667D01*
X144900000Y-72010803D01*
X141913857Y-72010803D01*
X141888386Y-71926836D01*
X141749247Y-71590924D01*
X141702330Y-71503149D01*
X141577859Y-71270279D01*
X141577858Y-71270277D01*
X141577853Y-71270268D01*
X141375854Y-70967956D01*
X141145197Y-70686899D01*
X141145196Y-70686898D01*
X141145192Y-70686893D01*
X140888106Y-70429807D01*
X140607049Y-70199150D01*
X140607048Y-70199149D01*
X140607044Y-70199146D01*
X140304732Y-69997147D01*
X140304727Y-69997144D01*
X140304720Y-69997140D01*
X139984083Y-69825756D01*
X139984078Y-69825754D01*
X139648165Y-69686614D01*
X139300223Y-69581067D01*
X139300212Y-69581064D01*
X138943630Y-69510137D01*
X138671111Y-69483296D01*
X138581794Y-69474500D01*
X138218206Y-69474500D01*
X138135679Y-69482628D01*
X137856369Y-69510137D01*
X137499787Y-69581064D01*
X137499776Y-69581067D01*
X137151834Y-69686614D01*
X136815921Y-69825754D01*
X136815916Y-69825756D01*
X136495279Y-69997140D01*
X136495261Y-69997151D01*
X136192964Y-70199140D01*
X136192950Y-70199150D01*
X135911893Y-70429807D01*
X135654807Y-70686893D01*
X135424150Y-70967950D01*
X135424140Y-70967964D01*
X135222151Y-71270261D01*
X135222140Y-71270279D01*
X135050756Y-71590916D01*
X135050754Y-71590921D01*
X134911614Y-71926834D01*
X134806067Y-72274776D01*
X134806064Y-72274787D01*
X134735137Y-72631369D01*
X134728977Y-72693919D01*
X134703154Y-72956113D01*
X134699500Y-72993209D01*
X134211542Y-72993209D01*
X134208237Y-69173232D01*
X134227864Y-69106178D01*
X134280628Y-69060377D01*
X134332126Y-69049127D01*
X195741132Y-68995992D01*
X195808187Y-69015619D01*
G37*
%TD.AperFunction*%
%TD*%
M02*
